# This file uses centimeters as units for non-parametric coordinates.

mtllib Sign.mtl
g default
v -5.702681 0.195861 -5.262832
v 5.702681 0.195861 -5.262832
v -5.702681 16.519463 1.271405
v 5.702681 16.519463 1.271405
v -5.702681 16.770191 0.645046
v 5.702681 16.770191 0.645046
v -5.702681 0.446589 -5.889192
v 5.702681 0.446589 -5.889192
v 5.702681 0.195861 7.827258
v -5.702681 0.195861 7.827258
v 5.702681 16.519463 1.293020
v -5.702681 16.519463 1.293020
v 5.702681 16.770191 1.919380
v -5.702681 16.770191 1.919380
v 5.702681 0.446589 8.453617
v -5.702681 0.446589 8.453617
vt 0.345885 0.018583
vt 0.653186 0.020504
vt 0.653052 0.486183
vt 0.345732 0.487995
vt 0.653346 0.504682
vt 0.345644 0.506096
vt 0.346003 0.000500
vt 0.653467 0.002059
vt 0.327259 0.488210
vt 0.018811 0.487532
vt 0.019361 0.018473
vt 0.327619 0.018369
vt 0.000910 0.018557
vt 0.000481 0.487402
vt 0.654212 0.512015
vt 0.961576 0.513945
vt 0.961443 0.979578
vt 0.654058 0.981397
vt 0.961743 0.998062
vt 0.653968 0.999501
vt 0.635587 0.981609
vt 0.327143 0.980954
vt 0.327690 0.511888
vt 0.635945 0.511806
vt 0.654326 0.493932
vt 0.961864 0.495511
vt 0.309247 0.511970
vt 0.308816 0.980826
vn 0.000000 -0.371626 0.928383
vn 0.000000 -0.371626 0.928383
vn 0.000000 -0.371626 0.928383
vn 0.000000 -0.371626 0.928383
vn 0.000000 0.928382 0.371627
vn 0.000000 0.928382 0.371627
vn 0.000000 0.928382 0.371627
vn 0.000000 0.928382 0.371627
vn 0.000000 0.371626 -0.928383
vn 0.000000 0.371626 -0.928383
vn 0.000000 0.371626 -0.928383
vn 0.000000 0.371626 -0.928383
vn 0.000000 -0.928382 -0.371627
vn 0.000000 -0.928382 -0.371627
vn 0.000000 -0.928382 -0.371627
vn 0.000000 -0.928382 -0.371627
vn 1.000000 -0.000000 0.000000
vn 1.000000 -0.000000 0.000000
vn 1.000000 -0.000000 0.000000
vn 1.000000 -0.000000 0.000000
vn -1.000000 -0.000000 0.000000
vn -1.000000 -0.000000 0.000000
vn -1.000000 -0.000000 0.000000
vn -1.000000 -0.000000 0.000000
vn 0.000000 -0.371626 -0.928383
vn 0.000000 -0.371626 -0.928383
vn 0.000000 -0.371626 -0.928383
vn 0.000000 -0.371626 -0.928383
vn 0.000000 0.928382 -0.371627
vn 0.000000 0.928382 -0.371627
vn 0.000000 0.928382 -0.371627
vn 0.000000 0.928382 -0.371627
vn 0.000000 0.371626 0.928383
vn 0.000000 0.371626 0.928383
vn 0.000000 0.371626 0.928383
vn 0.000000 0.371626 0.928383
vn 0.000000 -0.928382 0.371627
vn 0.000000 -0.928382 0.371627
vn 0.000000 -0.928382 0.371627
vn 0.000000 -0.928382 0.371627
vn -1.000000 -0.000000 0.000000
vn -1.000000 -0.000000 0.000000
vn -1.000000 -0.000000 0.000000
vn -1.000000 -0.000000 0.000000
vn 1.000000 -0.000000 0.000000
vn 1.000000 -0.000000 0.000000
vn 1.000000 -0.000000 0.000000
vn 1.000000 -0.000000 0.000000
s off
g pCube3
usemtl initialShadingGroup
f 1/1/1 2/2/2 4/3/3 3/4/4
f 3/4/5 4/3/6 6/5/7 5/6/8
f 5/9/9 6/10/10 8/11/11 7/12/12
f 7/7/13 8/8/14 2/2/15 1/1/16
f 2/13/17 8/11/18 6/10/19 4/14/20
f 7/12/21 1/1/22 3/4/23 5/9/24
f 9/15/25 10/16/26 12/17/27 11/18/28
f 11/18/29 12/17/30 14/19/31 13/20/32
f 13/21/33 14/22/34 16/23/35 15/24/36
f 15/25/37 16/26/38 10/16/39 9/15/40
f 10/27/41 16/23/42 14/22/43 12/28/44
f 15/24/45 9/15/46 11/18/47 13/21/48
